<svg width="848" height="331" viewBox="0 0 848 331" fill="none" xmlns="http://www.w3.org/2000/svg">
<path d="M0 1.80566L43.3021 1.80566C60.1418 1.80566 70.6667 10.0908 70.6667 32.4915L70.6667 108.899C70.6667 130.686 61.3447 140.812 43.6028 140.812H0L0 1.80566ZM29.7702 114.116H33.9801C38.4908 114.116 39.6936 111.354 39.6936 105.831L39.6936 35.5601C39.6936 30.0366 38.4908 27.5817 34.2808 27.5817L29.7702 27.5817L29.7702 114.116Z" fill="black"/>
<path d="M131.328 1.80566V30.6503L105.259 30.6503V54.2784H126.056L126.056 83.7368L105.259 83.7368V111.354L132.5 111.354L132.5 140.812H75.9668L75.9668 1.80566L131.328 1.80566Z" fill="black"/>
<path d="M199.633 1.80566V30.6503L182.223 30.6503L182.223 140.812H151.677L151.677 30.6503L134.267 30.6503V1.80566L199.633 1.80566Z" fill="black"/>
<path d="M258.522 1.80566V30.6503L232.317 30.6503V54.2784H253.222V83.7368L232.317 83.7368L232.317 111.354L259.7 111.354V140.812H203.167L203.167 1.80566L258.522 1.80566Z" fill="black"/>
<path d="M293.44 1.80566L308.686 69.0076V1.80566L333.9 1.80566V140.812H308.099L290.508 68.3939V140.812H265V1.80566L293.44 1.80566Z" fill="black"/>
<path d="M402.8 1.80566V30.6503L385.86 30.6503V140.812H356.14V30.6503L339.2 30.6503V1.80566L402.8 1.80566Z" fill="black"/>
<path d="M436.367 140.812H406.333V1.80566L436.367 1.80566V140.812Z" fill="black"/>
<path d="M515.867 104.974C515.867 128.845 502.487 142.617 481.811 142.617H476.033C453.836 142.617 441.673 129.151 441.673 104.974L441.673 39.1739C441.369 15.3023 451.403 0 475.729 0L481.506 0C505.832 0 515.867 15.6083 515.867 39.1739V104.974V104.974ZM484.243 35.8074C484.243 30.6046 482.723 27.8502 478.77 27.8502C474.817 27.8502 473.297 30.6046 473.297 35.8074V106.81C473.297 110.789 474.817 113.849 479.074 113.849C483.027 113.849 484.547 111.095 484.547 106.81V35.8074H484.243Z" fill="black"/>
<path d="M549.606 1.80566L564.852 69.0076V1.80566L590.067 1.80566V140.812H564.266L546.674 68.3939V140.812H521.167V1.80566L549.606 1.80566Z" fill="black"/>
<path d="M0 153.449H53.0665C73.8188 153.449 86.5667 163.968 86.5667 192.122L86.5667 288.341C86.5667 315.567 75.0047 328.562 53.0665 328.562H0L0 153.449ZM36.7612 294.839H41.801C47.1373 294.839 48.9161 291.435 48.9161 284.319L48.9161 195.835C48.9161 188.719 47.4338 185.625 42.3939 185.625H36.7612L36.7612 294.839Z" fill="black"/>
<path d="M132.5 328.562H95.3999L95.3999 153.449H132.5L132.5 328.562Z" fill="black"/>
<path d="M134.267 153.449H174.223L184.515 262.972L194.807 153.449L231.433 153.449L208.428 328.562H158.785L134.267 153.449Z" fill="black"/>
<path d="M304.161 153.449V189.647H271.478V219.658H297.683V256.784H271.478V291.745H305.633V328.562H234.967L234.967 153.449H304.161Z" fill="black"/>
<path d="M358.208 151.644C385.683 151.644 395.136 165.462 395.136 187.265V208.147H359.389V189.415C359.389 184.809 358.208 182.045 353.776 182.045C349.64 182.045 348.163 184.809 348.163 189.722V194.021C348.163 201.084 349.64 205.383 356.14 211.832L375.343 229.643C392.182 245.611 397.5 257.588 397.5 276.32V284.918C397.5 311.634 384.796 330.366 356.14 330.366H348.163C322.461 330.366 309.167 317.162 309.167 291.981V264.036H345.504V287.989C345.504 293.823 346.981 297.201 351.708 297.201C356.14 297.201 357.912 293.823 357.912 287.068V282.461C357.912 272.328 357.321 268.336 349.049 260.658L329.847 242.54C315.961 229.643 310.644 215.517 310.644 197.706V189.415C310.644 166.384 323.938 151.951 349.64 151.951H358.208V151.644Z" fill="black"/>
<path d="M478.767 153.449V189.647H457.547V328.562H420.188V189.647H399.267V153.449H478.767Z" fill="black"/>
<path d="M484.067 153.449H528.856L538.112 235.436L547.966 153.449L590.067 153.449V328.562H557.819V232.961L543.487 328.562H530.05L515.718 232.961V328.562H484.067V153.449Z" fill="black"/>
<path d="M668.094 153.449V189.647H635.411V219.658H661.617V256.784H635.411V291.745H669.567V328.562H598.9V153.449H668.094Z" fill="black"/>
<path d="M711.522 153.449L731.052 238.221V153.449L763.2 153.449V328.562H730.15L707.616 236.983V328.252H674.867V153.449H711.522Z" fill="black"/>
<path d="M848 153.449V189.647H826.86V328.562H789.64V189.647H768.5V153.449H848Z" fill="black"/>
</svg>
